HIERARCHY
ROOT hip
{
	OFFSET 0.000000 0.000000 0.000000 
	CHANNELS 6 Xposition Yposition Zposition Xrotation Zrotation Yrotation
	JOINT abdomen
	{
		OFFSET 0.000000 3.402643 0.000000 
		CHANNELS 3 Xrotation Zrotation Yrotation
		JOINT chest
		{
			OFFSET 0.000000 8.438565 -0.680529 
			CHANNELS 3 Xrotation Zrotation Yrotation
			JOINT neck
			{
				OFFSET 0.000000 10.207942 -0.272212 
				CHANNELS 3 Xrotation Zrotation Yrotation
				JOINT head
				{
					OFFSET 0.000000 3.130431 0.000000 
					CHANNELS 3 Xrotation Zrotation Yrotation
					End Site
					{
						OFFSET 0.000000 3.130435 0.000000 
					}
				}
			}
			JOINT lCollar
			{
				OFFSET 3.470700 6.669187 -0.816635 
				CHANNELS 3 Yrotation Zrotation Xrotation
				JOINT lShldr
				{
					OFFSET 3.198488 0.000000 0.000000 
					CHANNELS 3 Zrotation Yrotation Xrotation
					JOINT lForeArm
					{
						OFFSET 10.139888 0.000000 0.000000 
						CHANNELS 3 Yrotation Zrotation Xrotation
						JOINT lHand
						{
							OFFSET 8.370511 0.000000 0.000000 
							CHANNELS 3 Zrotation Yrotation Xrotation
							End Site
							{
								OFFSET 4.083176 0.000000 0.000000 
							}
						}
					}
				}
			}
			JOINT rCollar
			{
				OFFSET -3.470700 6.669187 -0.816635 
				CHANNELS 3 Yrotation Zrotation Xrotation
				JOINT rShldr
				{
					OFFSET -3.198488 0.000000 0.000000 
					CHANNELS 3 Zrotation Yrotation Xrotation
					JOINT rForeArm
					{
						OFFSET -10.139888 0.000000 0.000000 
						CHANNELS 3 Yrotation Zrotation Xrotation
						JOINT rHand
						{
							OFFSET -8.370511 0.000000 0.000000 
							CHANNELS 3 Zrotation Yrotation Xrotation
							End Site
							{
								OFFSET -4.083176 0.000000 0.000000 
							}
						}
					}
				}
			}
		}
	}
	JOINT lThigh
	{
		OFFSET 5.308129 -1.633274 1.361059 
		CHANNELS 3 Xrotation Zrotation Yrotation
		JOINT lShin
		{
			OFFSET -2.041588 -20.007561 0.000000 
			CHANNELS 3 Xrotation Zrotation Yrotation
			JOINT lFoot
			{
				OFFSET 0.000000 -19.190928 -1.224953 
				CHANNELS 3 Xrotation Yrotation Zrotation
				End Site
				{
					OFFSET 0.000000 -2.449906 4.627600 
				}
			}
		}
	}
	JOINT rThigh
	{
		OFFSET -5.308129 -1.633274 1.361059 
		CHANNELS 3 Xrotation Zrotation Yrotation
		JOINT rShin
		{
			OFFSET 2.041588 -20.007561 0.000000 
			CHANNELS 3 Xrotation Zrotation Yrotation
			JOINT rFoot
			{
				OFFSET 0.000000 -19.190928 -1.224953 
				CHANNELS 3 Xrotation Yrotation Zrotation
				End Site
				{
					OFFSET 0.000000 -2.449906 4.627600 
				}
			}
		}
	}
}
MOTION
Frames: 16
Frame Time: 0.016667
-5.236148 52.529659 -0.138970 -6.121252 -7.702876 -30.223661 31.983294 -10.131730 3.132247 -1.830982 -0.740890 5.195534 -23.853746 3.828671 -1.391546 -4.120463 -4.946382 4.400402 -2.962481 15.356829 0.824562 18.538698 -70.770302 -45.000000 -25.917805 2.045176 -7.495555 -34.914501 29.153290 41.370750 10.909736 -22.305649 1.188544 49.923027 31.782431 2.980082 115.137718 -5.000000 13.481877 6.539681 -10.286501 13.701546 -13.657850 22.839003 -24.786440 18.964399 -8.808171 -3.556217 3.255351 -1.219129 -18.591774 28.147381 -7.470664 -15.026716 18.334339 3.726532 1.350351 2.545271 -29.126772 11.493879 
-5.619629 53.096046 -0.153135 -5.458317 -6.903075 -26.950344 31.526709 -11.624756 4.169001 -1.758938 -2.259454 6.487627 -24.473278 2.373478 -0.893116 -3.496269 -4.507073 -2.605734 -1.952864 16.118290 0.845001 33.551258 -76.801483 -45.000000 -26.475542 2.740147 -8.688940 -34.069901 29.235159 42.844063 11.427386 -28.982439 1.624066 41.324432 35.633179 -5.627299 99.891441 -5.000000 6.066984 5.956781 -11.565082 11.179281 -14.041025 22.528234 -26.798496 14.468132 -8.424471 -2.642138 7.300162 -1.822309 -19.627981 28.807245 -5.683640 -13.886418 15.056078 3.501536 1.031297 7.791875 -28.560726 11.876421 
-5.883808 53.594769 -0.081755 -4.371187 -6.667102 -25.074421 30.973230 -11.859329 5.603460 -1.598786 -3.412830 8.173165 -25.004997 0.972044 -0.364320 -2.646208 -4.312412 -7.110791 -0.609648 15.767005 0.826897 52.980877 -80.084236 -45.000000 -27.432337 3.917701 -10.574626 -33.544724 29.475206 44.446236 12.061275 -30.000000 2.034308 28.442871 37.946873 -18.189190 70.740326 -5.000000 -11.238646 5.837403 -12.131863 11.042377 -14.255288 22.557085 -27.553827 11.269299 -7.752111 -1.985655 10.908240 -1.366246 -20.413946 28.964371 -4.648959 -13.235496 12.144431 3.452351 0.835188 13.505645 -26.330692 13.261900 
-6.147938 54.093464 -0.010341 -3.268014 -6.476997 -23.194422 30.400007 -12.075212 7.065533 -1.454926 -4.570475 9.853867 -25.547941 -0.428093 0.173411 -1.825514 -4.046606 -11.612024 0.743199 15.415716 0.806170 -90.000000 -98.512154 45.000000 -28.335028 5.000000 -12.416986 -33.016830 29.716602 45.000000 12.800084 -30.000000 2.567851 15.053011 37.906319 -31.254202 44.753899 -5.000000 -24.366096 5.725697 -12.711456 10.912884 -14.486847 22.575193 -28.311201 8.103726 -7.085791 -1.362717 14.552394 -0.982214 -21.194296 29.143208 -3.613564 -12.591362 9.196951 3.392373 0.658690 19.087999 -24.014013 14.356358 
-6.385458 54.498619 0.230234 -2.428331 -7.089127 -23.018782 29.862892 -11.809293 8.023471 -1.617099 -4.706658 11.274646 -25.484367 -0.995163 0.407317 -1.491671 -2.668193 -12.641225 2.160987 14.244535 0.721997 -82.860550 -99.003929 45.000000 -28.246378 4.582633 -11.402408 -33.390892 29.343510 45.000000 15.277634 -30.000000 2.801007 10.500325 36.200500 -37.323009 32.505939 -5.000000 -25.859604 5.560652 -8.869577 10.027020 -12.943052 23.257515 -24.968296 5.957027 -6.410348 -0.998864 16.545813 -0.519464 -21.354074 29.215174 -3.438092 -11.176374 7.027675 3.295700 0.497809 25.130449 -20.157701 15.821910 
-6.622968 54.903744 0.470875 -1.587228 -7.711316 -22.855635 29.330816 -11.535646 8.988764 -1.793664 -4.840958 12.695461 -25.424635 -1.562199 0.641397 -1.190156 -1.290540 -13.665834 3.579573 13.064445 0.668341 -71.268524 -99.904549 44.940868 -28.139454 4.003345 -10.386292 -33.755363 28.973003 45.000000 17.959278 -30.000000 3.301793 6.314315 34.136257 -43.049248 20.427830 -5.000000 -24.934622 5.297712 -5.038650 9.129204 -11.372762 23.843975 -21.622828 3.820298 -5.740435 -0.662351 18.576490 -0.057779 -21.534903 29.280430 -3.271834 -9.765029 4.872560 3.199866 0.331761 30.948151 -16.168077 16.789305 
-6.857810 55.177963 0.786263 -1.208614 -8.629447 -22.169445 28.971706 -11.106388 9.183339 -1.944456 -4.676818 12.674356 -24.975153 -1.563663 0.631745 -0.149604 -0.227715 -13.691530 3.904114 12.500052 0.658157 -72.217400 -99.673492 45.000000 -28.525108 3.669307 -9.605560 -33.973152 29.020409 44.853077 18.572918 -30.000000 3.551334 5.224838 33.467007 -44.525551 21.938145 -5.000000 -23.200788 5.322968 -5.947186 9.568643 -9.675399 24.509434 -17.684345 2.207802 -5.324145 -0.461599 19.377470 -0.774409 -21.082592 29.320080 -3.066553 -7.871324 3.835006 3.372211 0.295385 36.361279 -12.937740 17.959026 
-7.090860 55.364853 1.151492 -1.162418 -9.743020 -21.119699 28.726925 -10.567472 8.860543 -2.088069 -4.326046 11.701150 -24.265646 -1.204659 0.458740 1.409431 0.618379 -13.047578 3.515081 12.363523 0.651106 -82.127411 -98.753281 45.000000 -29.245043 3.475180 -8.986312 -34.115334 29.366631 43.828224 17.693310 -30.000000 3.512697 6.051747 33.870289 -43.309944 32.885483 -5.000000 -21.119795 5.444763 -10.030794 10.912421 -7.849512 25.172630 -13.382729 0.920355 -5.116678 -0.306146 19.466616 -2.316999 -20.204197 29.348360 -2.822148 -5.675857 3.564823 3.738281 0.321364 41.381046 -10.060714 19.248241 
-7.317080 55.519073 1.514051 -1.303041 -10.806044 -20.038879 28.621202 -10.154567 8.388953 -2.198205 -3.993632 10.622459 -23.558229 -0.833057 0.303799 2.856699 1.230868 -12.297706 3.146681 12.314229 0.636978 -90.000000 -98.249542 45.000000 -29.771292 3.326854 -8.542006 -34.301556 29.781305 42.989082 16.656828 -30.000000 3.460675 6.898720 34.770626 -42.297291 42.358135 -5.000000 -19.007879 5.589165 -13.219170 12.898179 -6.132154 25.683109 -9.618149 -0.007236 -4.927094 -0.242727 19.256216 -3.672338 -19.466768 29.316982 -2.665911 -3.494432 3.610248 4.146157 0.378378 46.073929 -7.299429 20.177420 
-7.515967 55.542736 1.865852 -2.164451 -11.656054 -18.821451 29.084227 -10.178061 7.266783 -2.162406 -3.729186 9.192267 -22.843023 -0.506799 0.175441 3.826848 0.986463 -11.271202 2.889179 12.626336 0.655184 77.995865 -81.520874 -45.000000 -29.553770 3.435929 -8.806108 -34.563137 30.000000 42.887989 14.931328 -30.000000 3.332784 7.801159 37.681816 -42.160202 44.541908 -5.000000 -20.110989 6.526121 -12.934225 17.466278 -5.116444 26.171391 -8.278716 0.519798 -4.986725 -0.265085 18.096209 -4.712021 -19.454485 29.132877 -2.899547 -1.411375 4.961273 4.841968 0.633092 49.373413 -4.798110 20.681376 
-7.714848 55.566353 2.217654 -3.042138 -12.494558 -17.578894 29.540653 -10.188303 6.149202 -2.136917 -3.472469 7.772606 -22.138798 -0.169420 0.055263 4.799516 0.730333 -10.254683 2.631577 12.938442 0.671289 69.838257 -81.103699 -45.000000 -29.336403 3.538347 -9.062613 -34.818424 30.000000 42.785919 13.222459 -30.000000 3.240756 8.752384 40.585495 -41.944359 46.666996 -5.000000 -21.030313 7.547105 -12.873762 22.026920 -4.069896 26.614330 -6.914809 1.035613 -5.044348 -0.296973 16.888474 -5.717654 -19.471760 28.960638 -3.134227 0.701692 6.289436 5.535181 0.862596 52.694023 -2.250597 21.024858 
-7.866209 55.496220 2.527882 -3.983623 -13.232564 -16.496941 30.150402 -10.502718 5.196996 -2.017392 -3.300366 6.862621 -21.806917 0.234089 -0.084801 4.822424 0.443707 -8.984633 2.524371 13.708859 0.713279 70.537491 -80.658928 -45.000000 -29.118006 3.657614 -9.404006 -34.873688 30.000000 42.843887 11.112572 -30.000000 2.943240 11.967107 42.191879 -38.202538 51.962475 -5.000000 -20.336433 7.752128 -12.973701 23.211672 -3.699110 27.182400 -6.089592 2.783192 -5.190728 -0.479243 15.204583 -6.859923 -19.755062 29.002277 -3.153874 1.676332 7.557718 6.012938 1.101196 54.669693 -0.073608 20.681587 
-8.005670 55.402618 2.827704 -4.958296 -13.934259 -15.427370 30.807779 -10.891585 4.283681 -1.878616 -3.156520 6.089805 -21.564453 0.658368 -0.218122 4.609390 0.145178 -7.656250 2.444247 14.596287 0.761431 73.075699 -80.207375 -45.000000 -28.889555 3.777345 -9.771926 -34.881420 30.000000 42.952778 8.985329 -30.000000 2.724746 15.903071 43.256100 -33.412529 58.333530 -5.000000 -18.491468 7.744341 -13.074811 23.556282 -3.504763 27.800552 -5.378577 4.838918 -5.353578 -0.703416 13.415987 -8.084031 -20.125681 29.120108 -3.154100 2.411124 8.797286 6.451957 1.297626 56.337830 2.022386 20.125469 
-8.097030 55.288258 3.101391 -5.769659 -14.530946 -14.539245 31.365414 -11.168462 3.476466 -1.730449 -2.914513 5.395048 -21.440626 1.072984 -0.349958 4.218434 -0.271897 -6.084055 2.385945 15.269161 0.798639 74.730080 -79.743332 -45.000000 -28.879805 3.862084 -9.942636 -34.807346 30.000000 43.035374 7.426231 -30.000000 2.535515 19.836859 43.590500 -28.518976 65.456406 -5.000000 -15.177015 7.627652 -13.315812 23.702024 -3.581773 28.292313 -4.748570 7.162469 -5.503324 -0.926429 11.476912 -9.205156 -20.193268 29.325403 -3.085462 2.973110 9.795053 6.736091 1.460629 57.308319 3.600874 19.627121 
-8.116225 55.142769 3.335875 -6.352279 -14.997839 -13.911827 31.784698 -11.303864 2.833353 -1.573284 -2.545106 4.788171 -21.484205 1.477935 -0.480298 3.557155 -0.847412 -4.121654 2.341748 15.620230 0.819353 75.362305 -79.318512 -45.000000 -29.169695 3.894052 -9.831471 -34.633644 30.000000 43.050987 6.663919 -30.000000 2.318725 23.488367 42.964336 -23.737392 73.460701 -5.000000 -10.424323 7.345394 -13.787271 23.550152 -4.098511 28.642918 -4.194484 9.879154 -5.620625 -1.246280 9.371283 -10.196905 -19.748999 29.656733 -2.958248 3.351526 10.430523 6.824389 1.548135 57.463078 4.392116 19.247765 
-8.135393 54.997272 3.570343 -6.949700 -15.446215 -13.282649 32.198490 -11.423245 2.183179 -1.430860 -2.165534 4.200969 -21.519758 1.881408 -0.620558 2.875602 -1.415011 -2.158992 2.297268 15.981045 0.837968 75.905403 -78.883194 -45.000000 -29.469435 3.926684 -9.718934 -34.468704 30.000000 43.075455 5.914988 -30.000000 2.126187 26.998138 42.123943 -19.089264 81.843971 -5.000000 -5.190473 7.069547 -14.257734 23.382671 -4.607070 28.996540 -3.651622 12.600430 -5.717280 -1.571403 7.333574 -11.148095 -19.312952 30.008522 -2.821717 3.715106 11.042608 6.920135 1.643952 57.540592 5.139253 18.866922 
